%TF.GenerationSoftware,KiCad,Pcbnew,(5.1.0)-1*%
%TF.CreationDate,2019-07-18T10:11:44+02:00*%
%TF.ProjectId,Timelapsebuild_Control,54696d65-6c61-4707-9365-6275696c645f,rev?*%
%TF.SameCoordinates,Original*%
%TF.FileFunction,Soldermask,Bot*%
%TF.FilePolarity,Negative*%
%FSLAX46Y46*%
G04 Gerber Fmt 4.6, Leading zero omitted, Abs format (unit mm)*
G04 Created by KiCad (PCBNEW (5.1.0)-1) date 2019-07-18 10:11:44*
%MOMM*%
%LPD*%
G04 APERTURE LIST*
%ADD10C,0.150000*%
%ADD11C,3.200000*%
%ADD12O,1.700000X1.700000*%
%ADD13R,1.700000X1.700000*%
%ADD14O,1.000000X1.600000*%
%ADD15O,1.000000X2.100000*%
%ADD16C,0.650000*%
%ADD17C,1.100000*%
G04 APERTURE END LIST*
D10*
X95000000Y-139500000D02*
X95000000Y-51500000D01*
X194000000Y-139500000D02*
X95000000Y-139500000D01*
X194000000Y-51500000D02*
X194000000Y-139500000D01*
X95000000Y-51500000D02*
X194000000Y-51500000D01*
D11*
X112649000Y-55651400D03*
X188950600Y-83870800D03*
X185140600Y-133400800D03*
X102768400Y-133400800D03*
D12*
X168928000Y-101703400D03*
X168928000Y-96623400D03*
X168928000Y-104243400D03*
X168928000Y-106783400D03*
X168928000Y-109323400D03*
X168928000Y-99163400D03*
X168928000Y-94083400D03*
D13*
X168928000Y-91543400D03*
D12*
X168928000Y-79793400D03*
X168928000Y-74713400D03*
X168928000Y-82333400D03*
X168928000Y-84873400D03*
X168928000Y-87413400D03*
X168928000Y-77253400D03*
X168928000Y-72173400D03*
D13*
X168928000Y-69633400D03*
D12*
X120663000Y-101513400D03*
X120663000Y-98973400D03*
D13*
X120663000Y-96433400D03*
D12*
X120663000Y-106593400D03*
X120663000Y-104053400D03*
X120663000Y-109133400D03*
X120663000Y-83683400D03*
X120663000Y-81143400D03*
D13*
X120663000Y-78603400D03*
D12*
X120663000Y-88763400D03*
X120663000Y-86223400D03*
X120663000Y-91303400D03*
X177165000Y-110266800D03*
D13*
X177165000Y-100106800D03*
D12*
X177165000Y-105186800D03*
X177165000Y-107726800D03*
X177165000Y-102646800D03*
X112115600Y-100146800D03*
D13*
X112115600Y-110306800D03*
D12*
X112115600Y-105226800D03*
X112115600Y-102686800D03*
X112115600Y-107766800D03*
D14*
X140942600Y-137203200D03*
D15*
X140942600Y-133023200D03*
D16*
X148152600Y-133553200D03*
X142387600Y-133553200D03*
D14*
X149582600Y-137203200D03*
D15*
X149582600Y-133023200D03*
D17*
X101545000Y-80238600D03*
X103045000Y-80238600D03*
X104545000Y-80238600D03*
X106045000Y-80238600D03*
X101442000Y-85344000D03*
X102942000Y-85344000D03*
X104442000Y-85344000D03*
X105942000Y-85344000D03*
X107442000Y-85344000D03*
X100177600Y-71502400D03*
X100177600Y-70002400D03*
X112090200Y-70281800D03*
X112090200Y-71781800D03*
M02*
