M48
; DRILL file {KiCad (5.1.0)-1} date 18/07/2019 10:04:39
; FORMAT={-:-/ absolute / inch / decimal}
; #@! TF.CreationDate,2019-07-18T10:04:39+02:00
; #@! TF.GenerationSoftware,Kicad,Pcbnew,(5.1.0)-1
; #@! TF.FileFunction,Plated,1,2,PTH
FMAT,2
INCH
T1C0.0079
T2C0.0098
T3C0.0118
T4C0.0138
T5C0.0157
T6C0.0236
T7C0.0256
T8C0.0276
T9C0.0394
%
G90
G05
T1
X3.876Y-2.469
X3.952Y-2.15
X4.137Y-4.715
X4.176Y-2.216
X4.382Y-4.718
X4.384Y-4.899
X4.408Y-2.419
X4.414Y-4.2428
X4.815Y-4.554
X4.8306Y-4.5684
X4.8465Y-4.5824
X4.882Y-4.487
X4.897Y-4.502
X4.9115Y-4.5175
X5.045Y-4.443
X5.059Y-2.609
X5.156Y-3.06
X5.182Y-3.275
X5.23Y-3.547
X5.236Y-3.701
X5.243Y-3.26
X5.247Y-3.151
X5.306Y-3.891
X5.313Y-3.28
X5.322Y-3.768
X5.328Y-4.064
X5.332Y-3.8761
X5.345Y-3.354
X5.379Y-3.522
X5.382Y-4.19
X5.403Y-3.323
X5.425Y-3.186
X5.452Y-4.017
X5.473Y-3.261
X5.473Y-3.853
X5.477Y-3.347
X5.489Y-3.323
X5.506Y-3.279
X5.517Y-4.02
X5.5285Y-3.5445
X5.558Y-3.519
X5.5586Y-3.5474
X5.59Y-3.523
X5.591Y-3.785
X5.5929Y-3.4981
X5.6246Y-3.4464
X5.629Y-3.77
X5.641Y-3.489
X5.659Y-3.43
X5.66Y-3.406
X5.673Y-3.755
X5.6834Y-3.4744
X5.714Y-4.13
X5.726Y-3.177
X5.745Y-3.786
X5.748Y-4.077
X5.779Y-3.912
X5.782Y-3.334
X5.786Y-3.178
X5.8Y-4.077
X5.859Y-4.076
X5.91Y-3.342
X5.947Y-3.361
X5.949Y-4.101
X5.958Y-3.327
X5.964Y-3.95
X5.979Y-3.715
X6.001Y-4.131
X6.004Y-3.31
X6.09Y-3.755
X6.106Y-3.293
X6.132Y-3.675
X6.135Y-3.739
X6.149Y-3.254
X6.177Y-3.342
X6.189Y-5.273
X6.192Y-5.211
X6.211Y-3.358
X6.214Y-3.31
X6.215Y-3.3861
X6.226Y-3.838
X6.226Y-4.131
X6.25Y-3.327
X6.26Y-3.373
X6.5337Y-3.7247
X6.5522Y-3.6852
X6.821Y-2.628
X6.861Y-2.872
X6.931Y-3.047
X6.933Y-2.9
X6.971Y-4.706
X7.008Y-2.706
X7.012Y-2.673
X7.066Y-4.898
X7.084Y-2.612
X7.144Y-2.908
X7.146Y-3.073
X7.159Y-2.616
X7.1721Y-4.7085
X7.174Y-2.902
X7.195Y-3.271
X7.2479Y-2.6101
X7.274Y-2.899
X7.276Y-2.625
X7.291Y-2.662
X7.299Y-2.693
X7.389Y-2.885
X7.465Y-2.695
X7.488Y-2.637
X7.53Y-2.978
T2
X5.577Y-4.788
X5.711Y-4.593
X5.805Y-4.691
X5.861Y-4.761
X5.91Y-4.584
X5.983Y-4.688
X6.088Y-4.906
T3
X6.9711Y-2.427
X6.9711Y-2.5648
X7.1581Y-2.4959
X7.3451Y-2.427
X7.3451Y-2.5648
T4
X3.856Y-3.253
X4.324Y-5.053
X5.022Y-4.588
X5.267Y-4.28
X5.27Y-4.653
X5.334Y-4.575
X5.389Y-4.324
X5.589Y-5.143
X5.594Y-5.07
X5.82Y-4.494
X5.854Y-5.146
X6.023Y-5.052
T5
X5.253Y-5.063
X5.258Y-5.141
T7
X5.6058Y-5.258
X5.8328Y-5.258
T8
X3.9938Y-3.36
X4.0528Y-3.36
X4.1119Y-3.36
X4.1709Y-3.36
X4.23Y-3.36
X3.944Y-2.756
X3.944Y-2.8151
X3.9978Y-3.159
X4.0569Y-3.159
X4.1159Y-3.159
X4.175Y-3.159
X4.413Y-2.767
X4.413Y-2.8261
T9
X6.975Y-3.9412
X6.975Y-4.0412
X6.975Y-4.1412
X6.975Y-4.2412
X6.975Y-4.3412
X4.7505Y-3.0946
X4.7505Y-3.1946
X4.7505Y-3.2946
X4.7505Y-3.3946
X4.7505Y-3.4946
X4.7505Y-3.5946
X4.7505Y-3.7966
X4.7505Y-3.8966
X4.7505Y-3.9966
X4.7505Y-4.0966
X4.7505Y-4.1966
X4.7505Y-4.2966
X6.6507Y-2.7415
X6.6507Y-2.8415
X6.6507Y-2.9415
X6.6507Y-3.0415
X6.6507Y-3.1415
X6.6507Y-3.2415
X6.6507Y-3.3415
X6.6507Y-3.4415
X6.6507Y-3.6041
X6.6507Y-3.7041
X6.6507Y-3.8041
X6.6507Y-3.9041
X6.6507Y-4.0041
X6.6507Y-4.1041
X6.6507Y-4.2041
X6.6507Y-4.3041
X4.414Y-3.9428
X4.414Y-4.0428
X4.414Y-4.1428
X4.414Y-4.2428
X4.414Y-4.3428
T6
G00X5.5489Y-5.2155
M15
G01X5.5489Y-5.2588
M16
G05
G00X5.5489Y-5.3899
M15
G01X5.5489Y-5.4135
M16
G05
G00X5.8891Y-5.2155
M15
G01X5.8891Y-5.2588
M16
G05
G00X5.8891Y-5.3899
M15
G01X5.8891Y-5.4135
M16
G05
T0
M30
